<svg xmlns="http://www.w3.org/2000/svg" xmlns:xlink="http://www.w3.org/1999/xlink" id="Final" width="800" height="800" x="0" y="0" enable-background="new 0 0 800 800" version="1.1" viewBox="0 0 800 800" xml:space="preserve"><switch><g><g><path fill="#BF272C" d="M519.574,250.863c75.605,65.979,83.453,180.804,17.524,256.471 c-65.929,75.664-180.663,83.517-256.271,17.538c-75.605-65.98-83.452-180.805-17.524-256.469 C329.232,192.736,443.967,184.883,519.574,250.863z"/><radialGradient id="SVGID_1_" cx="706.419" cy="226.7" r="180.727" gradientTransform="matrix(1.065 -1.2223 1.2214 1.0658 -679.9304 897.9635)" gradientUnits="userSpaceOnUse"><stop offset="0" style="stop-color:#ed1c24"/><stop offset=".182" style="stop-color:#e31f26"/><stop offset=".689" style="stop-color:#ca252b"/><stop offset="1" style="stop-color:#c1272d"/></radialGradient><path fill="url(#SVGID_1_)" d="M509.079,259.779c36.043,31.453,7.82,100.533-55.571,173.288 c-63.392,72.754-129.24,111.64-165.281,80.187c-72.699-63.441-84.601-168.854-21.209-241.607 C330.411,198.888,436.379,196.338,509.079,259.779z"/><path fill="none" stroke="#000" stroke-miterlimit="10" stroke-width="1.621" d="M536.916,268.169 c-9.833,54.051-37.646,111.898-82.147,162.973c-46.766,53.673-103.445,90.091-158.098,106.101" opacity=".5"/><g><path fill="#BF272C" d="M466.549,441.8c41.567-47.707,70.385-102.419,83.009-156.82 c-3.988-5.807-8.355-11.417-13.083-16.81c-9.833,54.051-37.637,111.896-82.14,162.972 c-46.766,53.673-103.443,90.075-158.096,106.087c5.915,4.116,12.004,7.847,18.242,11.173 C369.153,529.29,422.84,491.965,466.549,441.8z" opacity=".2"/><radialGradient id="SVGID_2_" cx="404.969" cy="397.619" r="83.341" gradientTransform="matrix(1.6205 0 0 1.6217 -247.9045 -249.3398)" gradientUnits="userSpaceOnUse"><stop offset="0" style="stop-color:#ed1c24"/><stop offset=".182" style="stop-color:#e31f26"/><stop offset=".689" style="stop-color:#ca252b"/><stop offset="1" style="stop-color:#c1272d"/></radialGradient><path fill="url(#SVGID_2_)" d="M296.239,537.229c54.653-16.012,111.33-52.414,158.096-106.087 c44.503-51.075,72.307-108.921,82.14-162.972c-4.395-5.016-9.103-9.841-14.131-14.439 c-7.513,56.802-35.907,115.893-80.223,166.752C395.64,473.829,337.387,511.16,280.22,524.715 c0.059,0.053,0.116,0.104,0.175,0.157C285.504,529.332,290.799,533.441,296.239,537.229z"/></g><g><path fill="none" stroke="#D1D3D4" stroke-linecap="round" stroke-linejoin="round" stroke-miterlimit="10" stroke-width="1.621" d="M314.481,548.401C369.153,529.29,422.84,491.965,466.549,441.8c41.567-47.707,70.385-102.419,83.009-156.82" opacity=".5"/><path fill="none" stroke="#D1D3D4" stroke-linecap="round" stroke-linejoin="round" stroke-miterlimit="10" stroke-width="1.621" d="M522.344,253.73c-7.513,56.802-35.907,115.893-80.223,166.752C395.64,473.829,337.387,511.16,280.22,524.715" opacity=".5"/><g><g><path fill="none" stroke="#FFF" stroke-linecap="round" stroke-linejoin="round" stroke-width="1.621" d="M314.481,548.401c0.764-0.267,1.528-0.538,2.291-0.812"/><path fill="none" stroke="#FFF" stroke-dasharray="4.915 6.553" stroke-linecap="round" stroke-linejoin="round" stroke-width="1.621" d="M322.913,545.307c51.74-19.893,102.176-55.924,143.636-103.507c40.154-46.085,68.41-98.706,81.665-151.27"/><path fill="none" stroke="#FFF" stroke-linecap="round" stroke-linejoin="round" stroke-width="1.621" d="M548.998,287.345c0.19-0.789,0.377-1.577,0.56-2.366"/></g></g><g><g><path fill="none" stroke="#FFF" stroke-linecap="round" stroke-linejoin="round" stroke-width="1.621" d="M522.344,253.73 c-0.106,0.802-0.217,1.604-0.331,2.408"/><path fill="none" stroke="#FFF" stroke-dasharray="4.83 6.44" stroke-linecap="round" stroke-linejoin="round" stroke-width="1.621" d="M521.021,262.498c-9.148,54.082-36.86,109.737-78.9,157.984c-44.996,51.642-101.023,88.275-156.418,102.86"/><path fill="none" stroke="#FFF" stroke-linecap="round" stroke-linejoin="round" stroke-width="1.621" d="M282.581,524.142c-0.787,0.195-1.574,0.387-2.361,0.573c0.059,0.053,0.116,0.104,0.175,0.157"/></g></g></g><g><g><g><path fill="#FFF" stroke="#FFF" stroke-miterlimit="10" stroke-width=".407" d="M562.45,317.369 c-0.416-0.126-0.898-2.563-0.122-5.132c0.474-1.292,0.89-1.328,1.309-1.202c0.413,0.125-0.023,2.4-0.113,2.755 C562.99,315.871,562.802,317.476,562.45,317.369z"/></g><g><path fill="#FFF" stroke="#FFF" stroke-miterlimit="10" stroke-width=".407" d="M559.209,327.021 c-0.41-0.14-0.813-2.592,0.045-5.132c0.85-2.549,1.016-4.542,1.43-4.405c0.409,0.137,0.91,2.34,0.056,4.904 C559.877,324.945,559.617,327.162,559.209,327.021z"/></g><g><path fill="#FFF" stroke="#FFF" stroke-miterlimit="10" stroke-width=".407" d="M555.256,337.721 c-0.405-0.152-0.728-2.616,0.212-5.128c0.933-2.52,1.165-4.506,1.575-4.355c0.403,0.149,0.832,2.368-0.106,4.903 C555.99,335.667,555.66,337.874,555.256,337.721z"/></g><g><path fill="#FFF" stroke="#FFF" stroke-miterlimit="10" stroke-width=".407" d="M550.963,348.284 c-0.4-0.166-0.645-2.639,0.375-5.118c1.013-2.489,1.309-4.467,1.714-4.304c0.4,0.163,0.757,2.395-0.263,4.897 C551.764,346.256,551.361,348.45,550.963,348.284z"/></g><g><path fill="#FFF" stroke="#FFF" stroke-miterlimit="10" stroke-width=".407" d="M546.344,358.705 c-0.395-0.178-0.563-2.656,0.534-5.104c1.089-2.456,1.447-4.423,1.848-4.247c0.394,0.175,0.68,2.416-0.417,4.887 C547.206,356.702,546.736,358.884,546.344,358.705z"/></g><g><path fill="#FFF" stroke="#FFF" stroke-miterlimit="10" stroke-width=".407" d="M541.411,368.976 c-0.39-0.19-0.479-2.672,0.682-5.09c1.176-2.416,1.587-4.374,1.983-4.185c0.388,0.186,0.61,2.437-0.571,4.867 C542.337,367,541.799,369.166,541.411,368.976z"/></g><g><path fill="#FFF" stroke="#FFF" stroke-miterlimit="10" stroke-width=".407" d="M536.176,379.096 c-0.385-0.201-0.402-2.685,0.832-5.067c1.246-2.38,1.718-4.325,2.106-4.124c0.382,0.197,0.537,2.454-0.717,4.849 C537.158,377.148,536.558,379.298,536.176,379.096z"/></g><g><path fill="#FFF" stroke="#FFF" stroke-miterlimit="10" stroke-width=".407" d="M530.646,389.062 c-0.377-0.214-0.323-2.695,0.979-5.041c1.314-2.344,1.842-4.273,2.227-4.062c0.375,0.208,0.463,2.469-0.858,4.826 C531.685,387.143,531.021,389.273,530.646,389.062z"/></g><g><path fill="#FFF" stroke="#FFF" stroke-miterlimit="10" stroke-width=".407" d="M524.832,398.865 c-0.37-0.224-0.245-2.704,1.124-5.012c1.38-2.306,1.962-4.219,2.341-3.995c0.37,0.218,0.394,2.481-0.994,4.799 C525.926,396.977,525.203,399.088,524.832,398.865z"/></g><g><path fill="#FFF" stroke="#FFF" stroke-miterlimit="10" stroke-width=".407" d="M518.748,408.502 c-0.366-0.233-0.171-2.708,1.261-4.977c1.445-2.266,2.081-4.163,2.453-3.929c0.364,0.229,0.323,2.491-1.128,4.769 C519.892,406.646,519.11,408.736,518.748,408.502z"/></g><g><path fill="#FFF" stroke="#FFF" stroke-miterlimit="10" stroke-width=".407" d="M512.398,417.97 c-0.358-0.244-0.096-2.713,1.397-4.941c1.507-2.226,2.196-4.104,2.561-3.859c0.356,0.239,0.255,2.499-1.26,4.736 C513.594,416.145,512.755,418.213,512.398,417.97z"/></g><g><path fill="#FFF" stroke="#FFF" stroke-miterlimit="10" stroke-width=".407" d="M505.795,427.261 c-0.352-0.253-0.023-2.714,1.53-4.901c1.566-2.184,2.306-4.042,2.663-3.788c0.352,0.249,0.188,2.506-1.386,4.7 C507.039,425.47,506.145,427.513,505.795,427.261z"/></g><g><path fill="#FFF" stroke="#FFF" stroke-miterlimit="10" stroke-width=".407" d="M498.944,436.372 c-0.345-0.263,0.049-2.714,1.662-4.858c1.623-2.142,2.413-3.979,2.763-3.716c0.345,0.259,0.12,2.509-1.513,4.661 C500.235,434.614,499.288,436.636,498.944,436.372z"/></g><g><path fill="#FFF" stroke="#FFF" stroke-miterlimit="10" stroke-width=".407" d="M491.856,445.3 c-0.337-0.272,0.12-2.711,1.788-4.813c1.681-2.099,2.518-3.914,2.861-3.642c0.337,0.267,0.054,2.512-1.635,4.62 C493.193,443.577,492.191,445.571,491.856,445.3z"/></g><g><path fill="#FFF" stroke="#FFF" stroke-miterlimit="10" stroke-width=".407" d="M484.54,454.037 c-0.33-0.28,0.19-2.708,1.914-4.765c1.732-2.053,2.617-3.848,2.954-3.565c0.329,0.275-0.013,2.512-1.755,4.575 C485.92,452.35,484.868,454.316,484.54,454.037z"/></g><g><path fill="#FFF" stroke="#FFF" stroke-miterlimit="10" stroke-width=".407" d="M476.997,462.58 c-0.325-0.29,0.263-2.702,2.038-4.713c1.786-2.007,2.719-3.777,3.046-3.487c0.323,0.285-0.077,2.512-1.873,4.529 C478.423,460.93,477.318,462.868,476.997,462.58z"/></g><g><path fill="#FFF" stroke="#FFF" stroke-miterlimit="10" stroke-width=".407" d="M469.221,470.915 c-0.315-0.298,0.335-2.692,2.166-4.654c1.841-1.957,2.82-3.701,3.14-3.403c0.315,0.295-0.146,2.509-1.995,4.476 C470.69,469.305,469.533,471.213,469.221,470.915z"/></g><g><path fill="#FFF" stroke="#FFF" stroke-miterlimit="10" stroke-width=".407" d="M461.223,479.038 c-0.308-0.306,0.408-2.683,2.291-4.594c1.893-1.907,2.918-3.624,3.231-3.316c0.308,0.301-0.214,2.504-2.117,4.42 C462.735,477.469,461.527,479.344,461.223,479.038z"/></g><g><path fill="#FFF" stroke="#FFF" stroke-miterlimit="10" stroke-width=".407" d="M453.009,486.942 c-0.299-0.313,0.481-2.671,2.414-4.53c1.944-1.854,3.016-3.543,3.319-3.228c0.3,0.309-0.281,2.495-2.235,4.359 C454.563,485.414,453.305,487.257,453.009,486.942z"/></g><g><path fill="#FFF" stroke="#FFF" stroke-miterlimit="10" stroke-width=".407" d="M444.584,494.622 c-0.29-0.323,0.554-2.657,2.535-4.464c1.994-1.803,3.111-3.461,3.405-3.138c0.291,0.318-0.348,2.488-2.352,4.3 C446.179,493.135,444.872,494.944,444.584,494.622z"/></g><g><path fill="#FFF" stroke="#FFF" stroke-miterlimit="10" stroke-width=".407" d="M435.954,502.069 c-0.281-0.329,0.626-2.642,2.656-4.394c2.041-1.747,3.202-3.375,3.489-3.044c0.281,0.326-0.416,2.479-2.468,4.233 C437.589,500.626,436.234,502.398,435.954,502.069z"/></g><g><path fill="#FFF" stroke="#FFF" stroke-miterlimit="10" stroke-width=".407" d="M427.124,509.278 c-0.272-0.337,0.696-2.624,2.775-4.319c2.088-1.691,3.294-3.286,3.57-2.947c0.272,0.333-0.482,2.467-2.582,4.164 C428.799,507.882,427.395,509.614,427.124,509.278z"/></g><g><path fill="#FFF" stroke="#FFF" stroke-miterlimit="10" stroke-width=".407" d="M418.098,516.239 c-0.263-0.346,0.769-2.603,2.895-4.24c2.133-1.631,3.383-3.194,3.65-2.848c0.263,0.341-0.551,2.452-2.696,4.093 C419.81,514.89,418.358,516.584,418.098,516.239z"/></g><g><path fill="#FFF" stroke="#FFF" stroke-miterlimit="10" stroke-width=".407" d="M408.88,522.944 c-0.254-0.352,0.842-2.58,3.011-4.157c2.18-1.569,3.473-3.097,3.73-2.743c0.253,0.349-0.62,2.436-2.811,4.015 C410.628,521.645,409.13,523.296,408.88,522.944z"/></g><g><path fill="#FFF" stroke="#FFF" stroke-miterlimit="10" stroke-width=".407" d="M399.472,529.384 c-0.243-0.359,0.917-2.555,3.129-4.068c2.224-1.508,3.56-2.997,3.806-2.636c0.244,0.355-0.687,2.415-2.924,3.931 C401.259,528.135,399.713,529.742,399.472,529.384z"/></g><g><path fill="#FFF" stroke="#FFF" stroke-miterlimit="10" stroke-width=".407" d="M389.88,535.545 c-0.232-0.368,0.992-2.526,3.248-3.976c2.267-1.441,3.645-2.892,3.882-2.522c0.233,0.362-0.758,2.396-3.038,3.845 C391.703,534.349,390.11,535.909,389.88,535.545z"/></g><g><path fill="#FFF" stroke="#FFF" stroke-miterlimit="10" stroke-width=".407" d="M380.107,541.414 c-0.221-0.374,1.068-2.494,3.367-3.875c2.309-1.372,3.729-2.78,3.956-2.404c0.221,0.369-0.83,2.37-3.152,3.752 C381.965,540.273,380.326,541.786,380.107,541.414z"/></g><g><path fill="#FFF" stroke="#FFF" stroke-miterlimit="10" stroke-width=".407" d="M370.156,546.978 c-0.208-0.378,1.145-2.463,3.49-3.762c2.344-1.31,3.811-2.668,4.024-2.286c0.211,0.377-0.904,2.341-3.262,3.658 C372.048,545.895,370.364,547.357,370.156,546.978z"/></g><g><path fill="#FFF" stroke="#FFF" stroke-miterlimit="10" stroke-width=".407" d="M360.032,552.222 c-0.196-0.389,1.224-2.425,3.609-3.647c2.385-1.234,3.893-2.545,4.095-2.157c0.199,0.384-0.978,2.311-3.377,3.553 C361.958,551.2,360.227,552.606,360.032,552.222z"/></g><g><path fill="#FFF" stroke="#FFF" stroke-miterlimit="10" stroke-width=".407" d="M349.737,557.123 c-0.184-0.393,1.305-2.382,3.73-3.522c2.424-1.154,3.976-2.415,4.164-2.021c0.186,0.39-1.054,2.277-3.493,3.438 C351.697,556.168,349.919,557.515,349.737,557.123z"/></g><g><path fill="#FFF" stroke="#FFF" stroke-miterlimit="10" stroke-width=".407" d="M344.152,557.829 c2.464-1.073,4.058-2.278,4.232-1.878c0.172,0.396-1.134,2.239-3.607,3.318C342.305,560.343,341.691,558.9,344.152,557.829z"/></g></g><g><g><path fill="#FFF" stroke="#FFF" stroke-miterlimit="10" stroke-width=".407" d="M557.087,307.168 c-0.419-0.115-0.964-2.539-0.253-5.127c0.215-0.733,0.773-1.35,1.194-1.234c0.417,0.114,0.645,0.054,0.318,1.649 C557.632,305.057,557.502,307.283,557.087,307.168z"/></g><g><path fill="#FFF" stroke="#FFF" stroke-miterlimit="10" stroke-width=".407" d="M554.103,316.832 c-0.413-0.13-0.875-2.571-0.079-5.131c0.785-2.569,0.902-4.566,1.319-4.439c0.412,0.126,0.969,2.315,0.178,4.9 C554.722,314.741,554.514,316.962,554.103,316.832z"/></g><g><path fill="#FFF" stroke="#FFF" stroke-miterlimit="10" stroke-width=".407" d="M550.43,327.54 c-0.408-0.145-0.788-2.6,0.093-5.133c0.872-2.54,1.058-4.531,1.471-4.391c0.408,0.14,0.89,2.348,0.011,4.904 C551.116,325.47,550.836,327.683,550.43,327.54z"/></g><g><path fill="#FFF" stroke="#FFF" stroke-miterlimit="10" stroke-width=".407" d="M546.403,338.118 c-0.403-0.156-0.702-2.623,0.262-5.126c0.957-2.51,1.207-4.494,1.615-4.34c0.403,0.153,0.812,2.376-0.151,4.901 C547.158,336.072,546.806,338.276,546.403,338.118z"/></g><g><path fill="#FFF" stroke="#FFF" stroke-miterlimit="10" stroke-width=".407" d="M542.039,348.559 c-0.398-0.171-0.617-2.646,0.428-5.115c1.036-2.479,1.351-4.453,1.755-4.285c0.396,0.165,0.732,2.4-0.311,4.894 C542.86,346.537,542.437,348.729,542.039,348.559z"/></g><g><path fill="#FFF" stroke="#FFF" stroke-miterlimit="10" stroke-width=".407" d="M537.35,358.852 c-0.392-0.182-0.534-2.662,0.588-5.099c1.114-2.444,1.49-4.408,1.89-4.228c0.392,0.178,0.656,2.422-0.466,4.882 C538.233,356.857,537.741,359.035,537.35,358.852z"/></g><g><path fill="#FFF" stroke="#FFF" stroke-miterlimit="10" stroke-width=".407" d="M532.35,368.992 c-0.388-0.195-0.451-2.677,0.735-5.083c1.2-2.403,1.632-4.357,2.026-4.164c0.384,0.19,0.584,2.443-0.622,4.862 C533.296,367.026,532.734,369.186,532.35,368.992z"/></g><g><path fill="#FFF" stroke="#FFF" stroke-miterlimit="10" stroke-width=".407" d="M527.045,378.978 c-0.382-0.206-0.372-2.688,0.888-5.058c1.271-2.367,1.763-4.307,2.149-4.103c0.38,0.202,0.511,2.461-0.768,4.842 C528.048,377.042,527.425,379.183,527.045,378.978z"/></g><g><path fill="#FFF" stroke="#FFF" stroke-miterlimit="10" stroke-width=".407" d="M521.447,388.804 c-0.375-0.217-0.293-2.698,1.035-5.028c1.341-2.33,1.89-4.253,2.271-4.037c0.373,0.212,0.438,2.475-0.91,4.816 C522.508,386.898,521.821,389.021,521.447,388.804z"/></g><g><path fill="#FFF" stroke="#FFF" stroke-miterlimit="10" stroke-width=".407" d="M515.57,398.466 c-0.369-0.229-0.216-2.705,1.179-4.997c1.407-2.29,2.012-4.196,2.385-3.971c0.369,0.226,0.367,2.487-1.048,4.79 C516.685,396.592,515.936,398.693,515.57,398.466z"/></g><g><path fill="#FFF" stroke="#FFF" stroke-miterlimit="10" stroke-width=".407" d="M509.421,407.959 c-0.362-0.238-0.14-2.71,1.317-4.962c1.473-2.249,2.131-4.139,2.498-3.901c0.36,0.234,0.296,2.496-1.183,4.758 C510.587,406.117,509.779,408.196,509.421,407.959z"/></g><g><path fill="#FFF" stroke="#FFF" stroke-miterlimit="10" stroke-width=".407" d="M503.008,417.279 c-0.355-0.249-0.064-2.715,1.456-4.924c1.534-2.208,2.244-4.078,2.605-3.83c0.354,0.244,0.226,2.503-1.315,4.722 C504.226,415.469,503.361,417.526,503.008,417.279z"/></g><g><path fill="#FFF" stroke="#FFF" stroke-miterlimit="10" stroke-width=".407" d="M496.345,426.419 c-0.349-0.257,0.009-2.715,1.59-4.882c1.592-2.164,2.354-4.015,2.708-3.756c0.348,0.252,0.156,2.507-1.443,4.683 C497.61,424.644,496.691,426.677,496.345,426.419z"/></g><g><path fill="#FFF" stroke="#FFF" stroke-miterlimit="10" stroke-width=".407" d="M489.438,435.378 c-0.342-0.267,0.08-2.713,1.719-4.839c1.65-2.12,2.46-3.949,2.809-3.682c0.34,0.263,0.089,2.512-1.568,4.644 C490.75,433.636,489.777,435.644,489.438,435.378z"/></g><g><path fill="#FFF" stroke="#FFF" stroke-miterlimit="10" stroke-width=".407" d="M482.297,444.151 c-0.334-0.276,0.151-2.711,1.847-4.79c1.704-2.078,2.563-3.884,2.903-3.608c0.334,0.271,0.024,2.512-1.689,4.601 C483.654,442.444,482.629,444.426,482.297,444.151z"/></g><g><path fill="#FFF" stroke="#FFF" stroke-miterlimit="10" stroke-width=".407" d="M474.929,452.735 c-0.328-0.285,0.222-2.705,1.975-4.736c1.752-2.039,2.66-3.818,2.992-3.533c0.326,0.28-0.044,2.51-1.806,4.558 C476.329,451.064,475.253,453.02,474.929,452.735z"/></g><g><path fill="#FFF" stroke="#FFF" stroke-miterlimit="10" stroke-width=".407" d="M467.331,461.121 c-0.32-0.293,0.297-2.698,2.098-4.686c1.813-1.984,2.765-3.742,3.091-3.449c0.318,0.289-0.109,2.51-1.932,4.505 C468.777,459.49,467.648,461.413,467.331,461.121z"/></g><g><path fill="#FFF" stroke="#FFF" stroke-miterlimit="10" stroke-width=".407" d="M459.512,469.297 c-0.312-0.303,0.368-2.689,2.224-4.628c1.865-1.934,2.865-3.666,3.182-3.363c0.313,0.298-0.177,2.507-2.052,4.45 C461.001,467.705,459.82,469.598,459.512,469.297z"/></g><g><path fill="#FFF" stroke="#FFF" stroke-miterlimit="10" stroke-width=".407" d="M451.473,477.257 c-0.303-0.311,0.443-2.679,2.349-4.566c1.918-1.883,2.965-3.587,3.273-3.274c0.303,0.306-0.245,2.5-2.173,4.392 C453.006,475.705,451.774,477.565,451.473,477.257z"/></g><g><path fill="#FFF" stroke="#FFF" stroke-miterlimit="10" stroke-width=".407" d="M443.22,484.993 c-0.294-0.318,0.516-2.665,2.474-4.499c1.967-1.829,3.061-3.505,3.359-3.186c0.295,0.313-0.312,2.493-2.29,4.332 C444.794,483.485,443.513,485.312,443.22,484.993z"/></g><g><path fill="#FFF" stroke="#FFF" stroke-miterlimit="10" stroke-width=".407" d="M434.758,492.502 c-0.284-0.326,0.589-2.649,2.596-4.43c2.018-1.775,3.155-3.42,3.446-3.092c0.287,0.321-0.381,2.483-2.408,4.267 C436.374,491.037,435.043,492.826,434.758,492.502z"/></g><g><path fill="#FFF" stroke="#FFF" stroke-miterlimit="10" stroke-width=".407" d="M426.091,499.771 c-0.275-0.335,0.663-2.633,2.717-4.355c2.067-1.719,3.251-3.331,3.532-2.995c0.277,0.329-0.449,2.473-2.527,4.198 C427.748,498.353,426.366,500.104,426.091,499.771z"/></g><g><path fill="#FFF" stroke="#FFF" stroke-miterlimit="10" stroke-width=".407" d="M417.224,506.795 c-0.267-0.342,0.736-2.611,2.838-4.277c2.114-1.658,3.342-3.237,3.614-2.894c0.268,0.337-0.519,2.458-2.643,4.125 C418.919,505.424,417.488,507.136,417.224,506.795z"/></g><g><path fill="#FFF" stroke="#FFF" stroke-miterlimit="10" stroke-width=".407" d="M408.159,513.563 c-0.258-0.35,0.811-2.591,2.96-4.195c2.16-1.598,3.432-3.14,3.694-2.788c0.257,0.343-0.588,2.441-2.76,4.048 C409.893,512.241,408.414,513.911,408.159,513.563z"/></g><g><path fill="#FFF" stroke="#FFF" stroke-miterlimit="10" stroke-width=".407" d="M398.901,520.065 c-0.247-0.356,0.886-2.565,3.081-4.106c2.204-1.533,3.522-3.04,3.774-2.682c0.247,0.352-0.658,2.425-2.877,3.967 C400.673,518.795,399.146,520.422,398.901,520.065z"/></g><g><path fill="#FFF" stroke="#FFF" stroke-miterlimit="10" stroke-width=".407" d="M389.454,526.291 c-0.236-0.364,0.962-2.539,3.202-4.014c2.25-1.468,3.609-2.935,3.852-2.568c0.237,0.359-0.729,2.404-2.992,3.88 C391.263,525.073,389.688,526.652,389.454,526.291z"/></g><g><path fill="#FFF" stroke="#FFF" stroke-miterlimit="10" stroke-width=".407" d="M379.822,532.225 c-0.226-0.372,1.04-2.507,3.323-3.913c2.293-1.398,3.697-2.822,3.928-2.45c0.226,0.366-0.802,2.382-3.109,3.789 C381.667,531.064,380.045,532.594,379.822,532.225z"/></g><g><path fill="#FFF" stroke="#FFF" stroke-miterlimit="10" stroke-width=".407" d="M370.009,537.855 c-0.213-0.377,1.117-2.476,3.447-3.8c2.33-1.337,3.78-2.711,3.999-2.333c0.214,0.374-0.877,2.353-3.221,3.695 C371.889,536.752,370.221,538.232,370.009,537.855z"/></g><g><path fill="#FFF" stroke="#FFF" stroke-miterlimit="10" stroke-width=".407" d="M360.019,543.167 c-0.2-0.383,1.197-2.438,3.569-3.686c2.371-1.261,3.864-2.588,4.07-2.202c0.203,0.381-0.952,2.321-3.338,3.59 C361.934,542.125,360.218,543.551,360.019,543.167z"/></g><g><path fill="#FFF" stroke="#FFF" stroke-miterlimit="10" stroke-width=".407" d="M349.858,548.145 c-0.188-0.391,1.278-2.396,3.69-3.564c2.411-1.18,3.949-2.458,4.142-2.065c0.19,0.387-1.028,2.288-3.456,3.477 C351.806,547.168,350.043,548.534,349.858,548.145z"/></g><g><path fill="#FFF" stroke="#FFF" stroke-miterlimit="10" stroke-width=".407" d="M339.529,552.768 c-0.174-0.397,1.361-2.35,3.812-3.434c2.451-1.096,4.031-2.321,4.21-1.923c0.176,0.395-1.106,2.254-3.573,3.356 C341.51,551.858,339.702,553.164,339.529,552.768z"/></g><g><path fill="#FFF" stroke="#FFF" stroke-miterlimit="10" stroke-width=".407" d="M333.996,553.31 c2.489-1.014,4.112-2.181,4.277-1.775c0.162,0.399-1.188,2.212-3.688,3.229C331.138,556.162,330.561,554.703,333.996,553.31z"/></g></g><g><g><path fill="none" stroke="#FFF" stroke-linecap="round" stroke-linejoin="round" stroke-width="1.621" d="M314.481,548.401c0.764-0.267,1.528-0.538,2.291-0.812"/><path fill="none" stroke="#FFF" stroke-dasharray="4.915 6.553" stroke-linecap="round" stroke-linejoin="round" stroke-width="1.621" d="M322.913,545.307c51.74-19.893,102.176-55.924,143.636-103.507c40.154-46.085,68.41-98.706,81.665-151.27"/><path fill="none" stroke="#FFF" stroke-linecap="round" stroke-linejoin="round" stroke-width="1.621" d="M548.998,287.345c0.19-0.789,0.377-1.577,0.56-2.366"/></g></g><g><g><path fill="#FFF" stroke="#FFF" stroke-miterlimit="10" stroke-width=".407" d="M278.836,505.085 c0.101,0.416-1.72,2.103-4.342,2.741c-2.625,0.635-5.739,2.071-5.84,1.65c-0.102-0.423,2.861-2.544,5.471-3.176 C276.728,505.667,278.732,504.66,278.836,505.085z"/></g><g><path fill="#FFF" stroke="#FFF" stroke-miterlimit="10" stroke-width=".407" d="M288.391,502.273 c0.124,0.412-1.608,2.188-4.2,2.957c-2.599,0.752-4.34,1.707-4.458,1.291c-0.12-0.419,1.445-2.052,4.018-2.797 C286.317,502.964,288.264,501.857,288.391,502.273z"/></g><g><path fill="#FFF" stroke="#FFF" stroke-miterlimit="10" stroke-width=".407" d="M298.934,498.651 c0.144,0.405-1.501,2.264-4.051,3.158c-2.558,0.879-4.25,1.919-4.389,1.509c-0.14-0.411,1.34-2.12,3.876-2.991 C296.896,499.441,298.787,498.241,298.934,498.651z"/></g><g><path fill="#FFF" stroke="#FFF" stroke-miterlimit="10" stroke-width=".407" d="M309.302,494.545 c0.162,0.399-1.396,2.329-3.903,3.338c-2.514,0.997-4.156,2.116-4.314,1.713c-0.159-0.406,1.241-2.182,3.732-3.17 C307.303,495.426,309.138,494.143,309.302,494.545z"/></g><g><path fill="#FFF" stroke="#FFF" stroke-miterlimit="10" stroke-width=".407" d="M319.486,489.988 c0.179,0.392-1.297,2.387-3.756,3.503c-2.468,1.104-4.059,2.295-4.235,1.899c-0.177-0.397,1.143-2.234,3.591-3.329 C317.525,490.954,319.304,489.594,319.486,489.988z"/></g><g><path fill="#FFF" stroke="#FFF" stroke-miterlimit="10" stroke-width=".407" d="M329.477,485.016 c0.195,0.383-1.199,2.438-3.61,3.652c-2.419,1.205-3.959,2.462-4.152,2.072c-0.193-0.39,1.049-2.278,3.45-3.476 C327.557,486.06,329.28,484.627,329.477,485.016z"/></g><g><path fill="#FFF" stroke="#FFF" stroke-miterlimit="10" stroke-width=".407" d="M339.268,479.653 c0.21,0.375-1.104,2.479-3.466,3.789c-2.371,1.299-3.86,2.615-4.067,2.235c-0.208-0.382,0.958-2.32,3.311-3.609 C337.389,480.77,339.055,479.272,339.268,479.653z"/></g><g><path fill="#FFF" stroke="#FFF" stroke-miterlimit="10" stroke-width=".407" d="M348.851,473.925 c0.224,0.367-1.012,2.52-3.323,3.916c-2.319,1.386-3.757,2.759-3.979,2.386c-0.222-0.374,0.87-2.354,3.173-3.73 C347.016,475.109,348.625,473.554,348.851,473.925z"/></g><g><path fill="#FFF" stroke="#FFF" stroke-miterlimit="10" stroke-width=".407" d="M358.222,467.855 c0.236,0.359-0.922,2.555-3.182,4.032c-2.268,1.47-3.656,2.894-3.891,2.529c-0.235-0.366,0.784-2.385,3.036-3.844 C356.43,469.105,357.982,467.493,358.222,467.855z"/></g><g><path fill="#FFF" stroke="#FFF" stroke-miterlimit="10" stroke-width=".407" d="M367.369,461.469 c0.249,0.352-0.833,2.584-3.04,4.14c-2.215,1.547-3.553,3.019-3.8,2.662s0.7-2.41,2.901-3.946 C365.622,462.778,367.117,461.113,367.369,461.469z"/></g><g><path fill="#FFF" stroke="#FFF" stroke-miterlimit="10" stroke-width=".407" d="M376.3,454.771 c0.26,0.344-0.746,2.612-2.899,4.24c-2.161,1.621-3.448,3.139-3.707,2.79c-0.26-0.349,0.617-2.433,2.765-4.043 C374.597,456.139,376.036,454.426,376.3,454.771z"/></g><g><path fill="#FFF" stroke="#FFF" stroke-miterlimit="10" stroke-width=".407" d="M385.007,447.781 c0.271,0.335-0.658,2.638-2.763,4.327c-2.099,1.701-3.339,3.255-3.608,2.917c-0.272-0.34,0.54-2.448,2.625-4.14 C383.352,449.207,384.732,447.444,385.007,447.781z"/></g><g><path fill="#FFF" stroke="#FFF" stroke-miterlimit="10" stroke-width=".407" d="M393.486,440.513 c0.283,0.324-0.573,2.655-2.622,4.413c-2.043,1.768-3.231,3.361-3.512,3.031c-0.283-0.33,0.459-2.464,2.49-4.22 C391.878,441.99,393.201,440.185,393.486,440.513z"/></g><g><path fill="#FFF" stroke="#FFF" stroke-miterlimit="10" stroke-width=".407" d="M401.731,432.976 c0.293,0.314-0.489,2.673-2.481,4.494c-1.985,1.833-3.122,3.462-3.414,3.143c-0.292-0.321,0.381-2.478,2.355-4.299 C400.171,434.504,401.436,432.657,401.731,432.976z"/></g><g><path fill="#FFF" stroke="#FFF" stroke-miterlimit="10" stroke-width=".407" d="M409.737,425.182 c0.302,0.308-0.405,2.688-2.339,4.57c-1.928,1.895-3.014,3.56-3.313,3.249c-0.305-0.313,0.302-2.488,2.218-4.371 C408.225,426.759,409.432,424.873,409.737,425.182z"/></g><g><path fill="#FFF" stroke="#FFF" stroke-miterlimit="10" stroke-width=".407" d="M417.496,417.143 c0.312,0.298-0.321,2.699-2.195,4.641c-1.867,1.952-2.9,3.652-3.21,3.351c-0.313-0.304,0.225-2.497,2.08-4.438 C416.034,418.766,417.182,416.844,417.496,417.143z"/></g><g><path fill="#FFF" stroke="#FFF" stroke-miterlimit="10" stroke-width=".407" d="M425.002,408.867 c0.321,0.287-0.237,2.709-2.051,4.707c-1.806,2.01-2.785,3.739-3.104,3.448c-0.323-0.293,0.146-2.503,1.941-4.499 C423.591,410.535,424.678,408.578,425.002,408.867z"/></g><g><path fill="#FFF" stroke="#FFF" stroke-miterlimit="10" stroke-width=".407" d="M432.251,400.366 c0.33,0.277-0.156,2.713-1.906,4.767c-1.744,2.064-2.67,3.823-2.999,3.542c-0.331-0.284,0.071-2.506,1.804-4.559 C430.891,402.075,431.919,400.086,432.251,400.366z"/></g><g><path fill="#FFF" stroke="#FFF" stroke-miterlimit="10" stroke-width=".407" d="M439.243,391.646 c0.337,0.268-0.073,2.717-1.762,4.822c-1.681,2.115-2.554,3.902-2.891,3.631c-0.339-0.273-0.005-2.507,1.666-4.609 C437.935,393.396,438.902,391.377,439.243,391.646z"/></g><g><path fill="#FFF" stroke="#FFF" stroke-miterlimit="10" stroke-width=".407" d="M445.966,382.718 c0.345,0.257,0.009,2.718-1.614,4.874c-1.616,2.166-2.433,3.979-2.777,3.717c-0.349-0.263-0.083-2.505,1.523-4.658 C444.711,384.508,445.615,382.459,445.966,382.718z"/></g><g><path fill="#FFF" stroke="#FFF" stroke-miterlimit="10" stroke-width=".407" d="M452.404,373.585 c0.354,0.245,0.096,2.716-1.46,4.922c-1.547,2.216-2.308,4.052-2.66,3.802c-0.356-0.252-0.16-2.502,1.378-4.704 C451.208,375.412,452.049,373.336,452.404,373.585z"/></g><g><path fill="#FFF" stroke="#FFF" stroke-miterlimit="10" stroke-width=".407" d="M458.553,364.252 c0.36,0.234,0.179,2.71-1.296,4.97c-1.488,2.257-2.186,4.12-2.547,3.881c-0.362-0.239-0.242-2.498,1.234-4.741 C457.412,366.115,458.188,364.015,458.553,364.252z"/></g><g><path fill="#FFF" stroke="#FFF" stroke-miterlimit="10" stroke-width=".407" d="M464.394,354.725 c0.369,0.223,0.268,2.703-1.133,5.01c-1.413,2.305-2.051,4.189-2.42,3.961c-0.37-0.228-0.322-2.488,1.081-4.777 C463.314,356.625,464.021,354.501,464.394,354.725z"/></g><g><path fill="#FFF" stroke="#FFF" stroke-miterlimit="10" stroke-width=".407" d="M469.917,345.009 c0.375,0.211,0.357,2.692-0.968,5.046c-1.335,2.351-1.909,4.255-2.286,4.04c-0.377-0.216-0.403-2.478,0.923-4.813 C468.9,346.944,469.537,344.798,469.917,345.009z"/></g><g><path fill="#FFF" stroke="#FFF" stroke-miterlimit="10" stroke-width=".407" d="M475.103,335.111 c0.383,0.198,0.451,2.679-0.793,5.076c-1.253,2.395-1.765,4.318-2.147,4.115c-0.385-0.203-0.489-2.462,0.758-4.841 C474.154,337.081,474.716,334.914,475.103,335.111z"/></g><g><path fill="#FFF" stroke="#FFF" stroke-miterlimit="10" stroke-width=".407" d="M479.937,325.039 c0.39,0.183,0.546,2.66-0.612,5.101c-1.169,2.438-1.61,4.376-2.002,4.188c-0.391-0.188-0.574-2.442,0.588-4.863 C479.061,327.041,479.543,324.854,479.937,325.039z"/></g><g><path fill="#FFF" stroke="#FFF" stroke-miterlimit="10" stroke-width=".407" d="M484.401,314.797 c0.396,0.17,0.644,2.64-0.424,5.12c-1.081,2.479-1.453,4.433-1.851,4.258c-0.397-0.174-0.661-2.421,0.412-4.882 C483.599,316.83,484.001,314.627,484.401,314.797z"/></g><g><path fill="#FFF" stroke="#FFF" stroke-miterlimit="10" stroke-width=".407" d="M488.477,304.395 c0.401,0.155,0.743,2.613-0.229,5.134c-0.986,2.518-1.285,4.484-1.688,4.325c-0.404-0.16-0.752-2.396,0.226-4.895 C487.751,306.458,488.069,304.24,488.477,304.395z"/></g><g><path fill="#FFF" stroke="#FFF" stroke-miterlimit="10" stroke-width=".407" d="M492.138,293.843 c0.408,0.138,0.847,2.58-0.025,5.138c-0.888,2.556-1.109,4.531-1.518,4.389c-0.411-0.144-0.845-2.363,0.035-4.899 C491.497,295.933,491.727,293.704,492.138,293.843z"/></g><g><path fill="#FFF" stroke="#FFF" stroke-miterlimit="10" stroke-width=".407" d="M495.365,283.15 c0.412,0.121,0.954,2.543,0.187,5.135c-0.782,2.59-0.923,4.573-1.338,4.446c-0.416-0.126-0.939-2.326-0.164-4.896 C494.811,285.266,494.947,283.029,495.365,283.15z"/></g><g><path fill="#FFF" stroke="#FFF" stroke-miterlimit="10" stroke-width=".407" d="M498.069,272.333 c0.416,0.099,1.09,2.489,0.456,5.118c-0.65,2.634-0.714,4.616-1.13,4.51c-0.425-0.108-1.034-2.283-0.393-4.882 C497.631,274.477,497.644,272.233,498.069,272.333z"/></g><g><path fill="#FFF" stroke="#FFF" stroke-miterlimit="10" stroke-width=".407" d="M500.342,261.393 c0.423,0.085,1.158,2.456,0.617,5.099c-0.548,2.645-0.508,4.636-0.933,4.546c-0.425-0.088-1.148-2.23-0.603-4.862 C499.962,263.544,499.916,261.307,500.342,261.393z"/></g><g><path fill="#FFF" stroke="#FFF" stroke-miterlimit="10" stroke-width=".407" d="M502.372,250.391 c0.424,0.076,1.211,2.431,0.728,5.084c-0.488,2.656-0.401,4.646-0.829,4.566c-0.427-0.079-1.199-2.205-0.712-4.849 C502.04,252.55,501.945,250.314,502.372,250.391z"/></g><g><path fill="#FFF" stroke="#FFF" stroke-miterlimit="10" stroke-width=".407" d="M503.961,240.417 c0.424,0.066,1.271,2.398,0.856,5.064c-0.428,2.667-0.288,4.652-0.717,4.584c-0.43-0.068-1.257-2.173-0.833-4.829 C503.681,242.586,503.53,240.349,503.961,240.417z"/></g></g><g><g><path fill="#FFF" stroke="#FFF" stroke-miterlimit="10" stroke-width=".407" d="M280.705,512.977 c0.102,0.416-1.72,2.102-4.342,2.739c-4.647,1.125-5.001-0.403-0.37-1.524C278.597,513.558,280.601,512.552,280.705,512.977z"/></g><g><path fill="#FFF" stroke="#FFF" stroke-miterlimit="10" stroke-width=".407" d="M290.382,510.145 c0.124,0.413-1.611,2.188-4.204,2.952c-2.599,0.749-4.341,1.702-4.459,1.286c-0.12-0.418,1.446-2.051,4.021-2.792 C288.307,510.832,290.256,509.729,290.382,510.145z"/></g><g><path fill="#FFF" stroke="#FFF" stroke-miterlimit="10" stroke-width=".407" d="M301.08,506.497 c0.143,0.405-1.506,2.26-4.059,3.147c-2.559,0.874-4.253,1.913-4.391,1.503c-0.14-0.414,1.344-2.119,3.881-2.985 C299.04,507.281,300.934,506.087,301.08,506.497z"/></g><g><path fill="#FFF" stroke="#FFF" stroke-miterlimit="10" stroke-width=".407" d="M311.604,502.363 c0.162,0.399-1.403,2.325-3.913,3.326c-2.516,0.99-4.161,2.106-4.318,1.701c-0.158-0.404,1.246-2.178,3.74-3.16 C309.602,503.238,311.441,501.96,311.604,502.363z"/></g><g><path fill="#FFF" stroke="#FFF" stroke-miterlimit="10" stroke-width=".407" d="M321.946,497.78 c0.178,0.393-1.305,2.382-3.768,3.489c-2.472,1.098-4.066,2.283-4.24,1.886c-0.175-0.397,1.15-2.229,3.601-3.317 C319.982,498.738,321.766,497.385,321.946,497.78z"/></g><g><path fill="#FFF" stroke="#FFF" stroke-miterlimit="10" stroke-width=".407" d="M332.096,492.779 c0.194,0.385-1.209,2.431-3.625,3.638c-2.425,1.195-3.969,2.446-4.16,2.057c-0.191-0.391,1.057-2.275,3.463-3.462 C330.172,493.814,331.899,492.391,332.096,492.779z"/></g><g><path fill="#FFF" stroke="#FFF" stroke-miterlimit="10" stroke-width=".407" d="M342.046,487.385 c0.208,0.377-1.115,2.477-3.482,3.775c-2.375,1.289-3.871,2.599-4.076,2.218c-0.207-0.384,0.967-2.315,3.326-3.596 C340.163,488.493,341.835,487.005,342.046,487.385z"/></g><g><path fill="#FFF" stroke="#FFF" stroke-miterlimit="10" stroke-width=".407" d="M351.791,481.625 c0.222,0.369-1.023,2.515-3.341,3.9c-2.325,1.376-3.771,2.741-3.99,2.368c-0.221-0.374,0.88-2.351,3.189-3.718 C349.95,482.802,351.566,481.253,351.791,481.625z"/></g><g><path fill="#FFF" stroke="#FFF" stroke-miterlimit="10" stroke-width=".407" d="M361.322,475.521 c0.235,0.361-0.935,2.55-3.202,4.017c-2.275,1.457-3.669,2.876-3.902,2.509c-0.233-0.366,0.794-2.38,3.054-3.828 C359.523,476.761,361.085,475.156,361.322,475.521z"/></g><g><path fill="#FFF" stroke="#FFF" stroke-miterlimit="10" stroke-width=".407" d="M370.631,469.094 c0.247,0.354-0.848,2.58-3.062,4.124c-2.223,1.536-3.568,3.002-3.814,2.644c-0.246-0.357,0.712-2.407,2.921-3.933 C368.876,470.396,370.381,468.739,370.631,469.094z"/></g><g><path fill="#FFF" stroke="#FFF" stroke-miterlimit="10" stroke-width=".407" d="M379.724,462.356 c0.259,0.344-0.761,2.607-2.922,4.223c-2.17,1.61-3.465,3.12-3.723,2.77c-0.258-0.348,0.63-2.428,2.787-4.027 C378.013,463.716,379.461,462.009,379.724,462.356z"/></g><g><path fill="#FFF" stroke="#FFF" stroke-miterlimit="10" stroke-width=".407" d="M388.593,455.322 c0.27,0.335-0.673,2.632-2.788,4.311c-2.109,1.688-3.357,3.235-3.625,2.896c-0.27-0.342,0.553-2.445,2.648-4.124 C386.929,456.737,388.32,454.983,388.593,455.322z"/></g><g><path fill="#FFF" stroke="#FFF" stroke-miterlimit="10" stroke-width=".407" d="M397.234,448.004 c0.28,0.327-0.589,2.654-2.648,4.397c-2.053,1.757-3.251,3.344-3.53,3.013c-0.281-0.334,0.473-2.463,2.515-4.208 C395.617,449.473,396.951,447.674,397.234,448.004z"/></g><g><path fill="#FFF" stroke="#FFF" stroke-miterlimit="10" stroke-width=".407" d="M405.642,440.416 c0.29,0.318-0.506,2.67-2.51,4.479c-1.995,1.819-3.143,3.444-3.433,3.121c-0.291-0.322,0.396-2.475,2.38-4.283 C404.07,441.935,405.348,440.096,405.642,440.416z"/></g><g><path fill="#FFF" stroke="#FFF" stroke-miterlimit="10" stroke-width=".407" d="M413.809,432.568 c0.3,0.308-0.422,2.685-2.368,4.555c-1.939,1.88-3.036,3.54-3.333,3.228c-0.303-0.315,0.316-2.486,2.244-4.356 C412.287,434.135,413.505,432.256,413.809,432.568z"/></g><g><path fill="#FFF" stroke="#FFF" stroke-miterlimit="10" stroke-width=".407" d="M421.729,424.469 c0.309,0.3-0.341,2.697-2.227,4.626c-1.88,1.942-2.923,3.634-3.231,3.331c-0.312-0.306,0.24-2.496,2.109-4.425 C420.256,426.083,421.416,424.168,421.729,424.469z"/></g><g><path fill="#FFF" stroke="#FFF" stroke-miterlimit="10" stroke-width=".407" d="M429.395,416.134 c0.318,0.288-0.256,2.705-2.082,4.692c-1.82,1.997-2.811,3.721-3.129,3.428c-0.319-0.297,0.165-2.503,1.972-4.488 C427.973,417.79,429.072,415.841,429.395,416.134z"/></g><g><path fill="#FFF" stroke="#FFF" stroke-miterlimit="10" stroke-width=".407" d="M436.813,407.553 c0.327,0.279-0.175,2.712-1.933,4.76c-1.766,2.044-2.699,3.801-3.027,3.518c-0.327-0.285,0.084-2.509,1.839-4.542 C435.44,409.253,436.481,407.271,436.813,407.553z"/></g><g><path fill="#FFF" stroke="#FFF" stroke-miterlimit="10" stroke-width=".407" d="M443.954,398.776 c0.335,0.269-0.094,2.716-1.796,4.81c-1.695,2.104-2.581,3.885-2.915,3.611c-0.337-0.276,0.011-2.508,1.696-4.6 C442.633,400.517,443.614,398.504,443.954,398.776z"/></g><g><path fill="#FFF" stroke="#FFF" stroke-miterlimit="10" stroke-width=".407" d="M450.835,389.774 c0.343,0.26-0.012,2.718-1.649,4.861c-1.631,2.154-2.461,3.961-2.804,3.698c-0.345-0.266-0.065-2.507,1.557-4.648 C449.567,391.555,450.488,389.513,450.835,389.774z"/></g><g><path fill="#FFF" stroke="#FFF" stroke-miterlimit="10" stroke-width=".407" d="M457.437,380.565 c0.352,0.249,0.073,2.717-1.498,4.911c-1.565,2.204-2.339,4.034-2.69,3.781c-0.353-0.254-0.141-2.502,1.413-4.693 C456.225,382.384,457.081,380.314,457.437,380.565z"/></g><g><path fill="#FFF" stroke="#FFF" stroke-miterlimit="10" stroke-width=".407" d="M463.746,371.155 c0.359,0.237,0.157,2.712-1.337,4.96c-1.505,2.244-2.217,4.103-2.576,3.859c-0.361-0.242-0.224-2.5,1.272-4.731 C462.59,373.009,463.384,370.916,463.746,371.155z"/></g><g><path fill="#FFF" stroke="#FFF" stroke-miterlimit="10" stroke-width=".407" d="M469.754,361.548 c0.365,0.227,0.243,2.706-1.18,5.001c-1.431,2.292-2.084,4.172-2.451,3.94c-0.368-0.231-0.302-2.492,1.121-4.77 C468.657,363.438,469.383,361.321,469.754,361.548z"/></g><g><path fill="#FFF" stroke="#FFF" stroke-miterlimit="10" stroke-width=".407" d="M475.442,351.751 c0.374,0.214,0.333,2.695-1.013,5.036c-1.356,2.338-1.949,4.237-2.323,4.019c-0.375-0.219-0.383-2.48,0.966-4.804 C474.409,353.676,475.064,351.536,475.442,351.751z"/></g><g><path fill="#FFF" stroke="#FFF" stroke-miterlimit="10" stroke-width=".407" d="M480.801,341.769 c0.38,0.201,0.423,2.684-0.844,5.068c-1.276,2.382-1.805,4.3-2.187,4.094c-0.383-0.207-0.465-2.467,0.804-4.833 C479.832,343.729,480.416,341.567,480.801,341.769z"/></g><g><path fill="#FFF" stroke="#FFF" stroke-miterlimit="10" stroke-width=".407" d="M485.812,331.609 c0.388,0.188,0.516,2.666-0.668,5.094c-1.193,2.425-1.657,4.36-2.045,4.167c-0.389-0.193-0.549-2.449,0.638-4.858 C484.912,333.602,485.42,331.42,485.812,331.609z"/></g><g><path fill="#FFF" stroke="#FFF" stroke-miterlimit="10" stroke-width=".407" d="M490.457,321.278 c0.395,0.174,0.613,2.646-0.483,5.115c-1.108,2.466-1.502,4.416-1.897,4.236c-0.396-0.18-0.635-2.428,0.467-4.877 C489.63,323.302,490.059,321.104,490.457,321.278z"/></g><g><path fill="#FFF" stroke="#FFF" stroke-miterlimit="10" stroke-width=".407" d="M494.719,310.784 c0.4,0.159,0.711,2.621-0.294,5.129c-1.016,2.506-1.339,4.469-1.739,4.305c-0.402-0.164-0.723-2.403,0.286-4.891 C493.969,312.837,494.315,310.625,494.719,310.784z"/></g><g><path fill="#FFF" stroke="#FFF" stroke-miterlimit="10" stroke-width=".407" d="M498.579,300.137 c0.405,0.144,0.81,2.592-0.097,5.138c-0.921,2.542-1.168,4.516-1.576,4.366c-0.408-0.148-0.813-2.374,0.102-4.898 C497.908,302.218,498.169,299.993,498.579,300.137z"/></g><g><path fill="#FFF" stroke="#FFF" stroke-miterlimit="10" stroke-width=".407" d="M502.012,289.346 c0.411,0.127,0.914,2.557,0.108,5.137c-0.817,2.577-0.988,4.56-1.401,4.427c-0.413-0.134-0.905-2.34-0.094-4.898 C501.424,291.451,501.597,289.218,502.012,289.346z"/></g><g><path fill="#FFF" stroke="#FFF" stroke-miterlimit="10" stroke-width=".407" d="M504.991,278.426 c0.413,0.108,1.03,2.518,0.323,5.126c-0.706,2.612-0.798,4.598-1.214,4.482c-0.421-0.115-1.001-2.301-0.3-4.892 C504.502,280.557,504.567,278.314,504.991,278.426z"/></g><g><path fill="#FFF" stroke="#FFF" stroke-miterlimit="10" stroke-width=".407" d="M507.511,267.39 c0.421,0.093,1.122,2.474,0.533,5.109c-0.6,2.637-0.604,4.626-1.025,4.528c-0.425-0.098-1.101-2.256-0.504-4.873 C507.099,269.536,507.086,267.297,507.511,267.39z"/></g><g><path fill="#FFF" stroke="#FFF" stroke-miterlimit="10" stroke-width=".407" d="M509.623,256.261 c0.424,0.077,1.214,2.43,0.724,5.087c-0.504,2.657-0.434,4.645-0.859,4.563c-0.428-0.082-1.183-2.213-0.683-4.851 C509.292,258.422,509.196,256.185,509.623,256.261z"/></g><g><path fill="#FFF" stroke="#FFF" stroke-miterlimit="10" stroke-width=".407" d="M511.122,246.159 c0.424,0.062,1.304,2.381,0.922,5.055c-0.396,2.674-0.238,4.655-0.667,4.593c-0.43-0.063-1.277-2.161-0.884-4.818 C510.872,248.334,510.689,246.098,511.122,246.159z"/></g></g><g><g><path fill="none" stroke="#FFF" stroke-linecap="round" stroke-linejoin="round" stroke-width="1.621" d="M522.344,253.73 c-0.106,0.802-0.217,1.604-0.331,2.408"/><path fill="none" stroke="#FFF" stroke-dasharray="4.83 6.44" stroke-linecap="round" stroke-linejoin="round" stroke-width="1.621" d="M521.021,262.498c-9.148,54.082-36.86,109.737-78.9,157.984c-44.996,51.642-101.023,88.275-156.418,102.86"/><path fill="none" stroke="#FFF" stroke-linecap="round" stroke-linejoin="round" stroke-width="1.621" d="M282.581,524.142c-0.787,0.195-1.574,0.387-2.361,0.573c0.059,0.053,0.116,0.104,0.175,0.157"/></g></g></g></g></g></switch></svg>