<svg xmlns="http://www.w3.org/2000/svg" xmlns:xlink="http://www.w3.org/1999/xlink" id="Layer_1" x="0" y="0" version="1.1" viewBox="0 0 1400 1400" xml:space="preserve" style="enable-background:new 0 0 1400 1400"><metadata><?xpacket begin="﻿" id="W5M0MpCehiHzreSzNTczkc9d"?><?xpacket end="w"?></metadata><g><rect style="fill:#80c342" width="1400" height="1400" y=".3"/><g><path style="fill:#3fa047" d="M1143.4,905.3c0,164.3-233.4,297.6-521.4,297.6s-521.4-133.2-521.4-297.6s221.7-395.5,509.7-395.5 S1143.4,741,1143.4,905.3z"/><g><g><ellipse style="fill:#d1cfa3" cx="701.5" cy="819.5" rx="473.4" ry="343.8"/><ellipse style="fill:#fefbe3" cx="701.5" cy="807.4" rx="473.4" ry="343.8"/><path style="fill:#818286" d="M1156.1,589.5c0-175-203.7-316.9-455.1-316.9S245.9,414.5,245.9,589.5c0,46.9,0,181.7,0,228.6 c0,175,203.7,316.9,455.1,316.9s455.1-141.9,455.1-316.9C1156.1,771.2,1156.1,636.4,1156.1,589.5z"/><g><path style="fill:#6e6f76" d="M314,422.7c-13.7,15.4-25.5,31.6-35.3,48.6v465c9.8,17,21.7,33.2,35.3,48.6V422.7z"/><path style="fill:#6e6f76" d="M463.4,319.2c-20.4,8.7-39.7,18.5-57.8,29.3v710.7c18.1,10.8,37.4,20.6,57.8,29.3V319.2z"/><path style="fill:#6e6f76" d="M948.5,323.5v760.6c24.2-10.9,46.8-23.4,67.5-37.2V360.7C995.2,346.9,972.6,334.4,948.5,323.5z"/><path style="fill:#6e6f76" d="M795.9,279.5c-30.6-4.5-62.3-6.9-94.9-6.9c-27.9,0-55.3,1.8-81.8,5.1v852.2 c26.5,3.4,53.9,5.1,81.8,5.1c32.5,0,64.3-2.4,94.9-6.9V279.5z"/><path style="fill:#6e6f76" d="M1088.2,423v561.7c8.8-9.9,16.9-20.2,24.1-30.8V453.7C1105.1,443.1,1097,432.9,1088.2,423z"/></g><g><path style="fill:#d1cfa3" d="M245.9,652.7v125.7c0,175,203.7,316.9,455.1,316.9s455.1-141.9,455.1-316.9V652.7H245.9z"/><path style="fill:#fefbe3" d="M245.9,632.4v125.7c0,175,203.7,316.9,455.1,316.9s455.1-141.9,455.1-316.9V632.4H245.9z"/><path style="fill:#818286" d="M245.9,622.8v125.7c0,175,203.7,316.9,455.1,316.9s455.1-141.9,455.1-316.9V622.8H245.9z"/></g><g><path style="fill:#d1cfa3" d="M245.9,603.5v125.7c0,175,203.7,316.9,455.1,316.9s455.1-141.9,455.1-316.9V603.5H245.9z"/><path style="fill:#fefbe3" d="M245.9,583.1v125.7c0,175,203.7,316.9,455.1,316.9s455.1-141.9,455.1-316.9V583.1H245.9z"/><path style="fill:#818286" d="M245.9,573.5v125.7c0,175,203.7,316.9,455.1,316.9s455.1-141.9,455.1-316.9V573.5H245.9z"/><path style="fill:#6e6f76" d="M245.9,536.6v125.7c0,175,203.7,316.9,455.1,316.9s455.1-141.9,455.1-316.9V536.6H245.9z"/></g><g><g><ellipse style="fill:#00a199" cx="701" cy="581.5" rx="407.2" ry="292.4"/><ellipse style="fill:#96daf7" cx="701" cy="592.2" rx="351" ry="239.6"/><ellipse style="fill:#00a4c6" cx="701" cy="603" rx="351" ry="239.6"/><ellipse style="fill:#006f90" cx="701" cy="620.1" rx="351" ry="239.6"/><ellipse style="fill:#00a199" cx="701" cy="630.3" rx="351" ry="239.6"/><ellipse style="fill:#00a4c6" cx="701" cy="657" rx="351" ry="239.6"/><ellipse style="fill:#066b9d" cx="701" cy="677.4" rx="351" ry="239.6"/><ellipse style="fill:#96daf7" cx="701" cy="685.9" rx="351" ry="239.6"/><ellipse style="fill:#fcb415" cx="703.1" cy="698.8" rx="351" ry="239.6"/><ellipse style="fill:#60bb46" cx="701" cy="709.1" rx="326.5" ry="222.9"/><g><path style="fill:#3fa047" d="M416.1,813.9l82.3-271.1c-11.7,6.5-22.8,13.6-33,21.2l-72.2,211.2 C399,788.7,406.7,801.6,416.1,813.9z"/><path style="fill:#3fa047" d="M479.8,871.6L559,516.2c-9.4,3.2-18.6,6.7-27.5,10.5l-83.8,320.9 C457.5,856.1,468.2,864.1,479.8,871.6z"/><path style="fill:#3fa047" d="M555.8,908.3l57.8-406.5c-8.6,1.7-17,3.6-25.3,5.7l-69.6,385.8 C530.6,898.8,542.9,903.9,555.8,908.3z"/><path style="fill:#3fa047" d="M638.7,927.9L665.4,495c-8.2,0.6-16.3,1.4-24.2,2.5L599,920.7 C611.9,923.6,625.2,926,638.7,927.9z"/><path style="fill:#3fa047" d="M701,932c7.9,0,15.8-0.2,23.5-0.6l-8.3-437.5c-5-0.2-10.1-0.3-15.2-0.3c-2.9,0-5.8,0-8.7,0.1 l-8.3,438C689.6,931.9,695.3,932,701,932z"/><path style="fill:#3fa047" d="M809.4,919.2l-42-420.9c-8-1.1-16.1-2.1-24.3-2.8l26.6,431.5 C783.3,924.9,796.5,922.3,809.4,919.2z"/><path style="fill:#3fa047" d="M889.3,890.4l-68.7-381.1c-8.3-2.3-16.8-4.3-25.4-6.1l57.3,402.9 C865.3,901.4,877.6,896.2,889.3,890.4z"/><path style="fill:#3fa047" d="M959.6,842.8l-81.7-312.9c-9-4-18.2-7.8-27.8-11.2l77.9,349.2 C939.4,860.1,949.9,851.7,959.6,842.8z"/><path style="fill:#3fa047" d="M1012.4,766.4l-66.9-195.7c-10.5-8.4-21.8-16.2-34-23.5l79,260.3 C999.8,794.6,1007.1,780.8,1012.4,766.4z"/></g></g><path style="fill:#d1cfa3" d="M1217.2,639.4l-36.5-10.7c0.9-9.2,1.2-18.5,1-27.7c0.8-32.5-5.2-65.1-17.9-96.8h26.7v-11.4l-2-4 H1157c-15.3-32.4-36.7-61.6-62.4-87.3l14.2-3.7v-11.4l-3.3-3l-23.4,6.1c-30-27.4-65.4-50.9-103.9-70l4.9-3.3v-11.4l-4.1-1.9 l-14.8,9.9c-34.6-15.9-72.1-28.7-111.2-37.8l1-1.6v-11.4l-4.4-0.9l-7.6,11.5c-43.6-9.4-90.1-14.6-138.2-14.7l0-12.1h-4.5 l0,12.1c-43.1,0.1-84.8,4.3-124.3,11.9l-6.8-11.6l-4.4,0.9v11.4l0.8,1.4c-44.4,9.3-86.8,23.2-125.7,41l-14.8-9.9l-4.1,1.9v11.4 l4.9,3.3c-34.2,17-65.8,37.3-93.5,60.8l-22.6-6.6l-3.4,2.9v11.4l13.1,3.8c-30.1,28-55.1,60.5-72.4,97h-31.5l-2,4v11.4h26.7 c-12.7,31.8-18.7,64.4-17.9,97c-0.1,4.2-0.1,8.4,0,12.5l-36.8,9.6l0.3,4.8v11.4l37.5-9.8c4.7,48.3,24.2,95.7,57.9,139.1 l-31.3,20.9V801l3.8,4.8l37.3-25c36.1,42.2,85.4,79.1,146,107.5L416.9,918v11.4l7.2,3.3l25.2-38.6 c72.2,31.4,156.7,49.7,247.9,50.2l-0.1,34.2h0l0,11.4h9l0-11.4h0l-0.1-34.2c81.7-0.5,158.2-15.2,225.3-41l23.1,39.8l7.5-3.1 v-11.4L944,898.3c71-29.3,128.2-70,168.8-117.4l37.3,25l3.8-4.8v-11.4l-31.3-20.9c30.3-38.9,49.1-81.1,56-124.2l38,11.2 l0.6-4.9V639.4z M1056.9,592.5c-0.4,1.5-0.8,3-1.2,4.5c-9.1,32.3-27.5,63.1-54.4,90.8c-1.3,1.4-2.7,2.7-4.1,4.1 c-32.6,32.1-76.2,59.1-128.6,78c-2.3,0.8-4.6,1.6-6.9,2.4c-47.2,16.1-100.2,25.3-156.3,25.7c-1.3,0-2.6,0-3.9,0s-2.6,0-3.9,0 c-62.8-0.5-121.4-11.9-172.6-31.7c-2.2-0.9-4.5-1.7-6.7-2.6c-45.3-18.4-83.4-43.1-112.5-71.9c-1.4-1.4-2.7-2.7-4.1-4.1 c-29.9-30.8-49.3-65.4-57.1-101.5c-0.3-1.5-0.6-3-0.9-4.5c-1.6-8.7-2.6-17.4-2.9-26.1c0.6-17.2,3.8-34.4,9.6-51.5 c0.2-0.7,0.5-1.3,0.7-2c0.2-0.7,0.5-1.3,0.7-2c11.4-30.9,30.6-58.6,55-82.4c1.1-1,2.1-2.1,3.2-3.1c22-20.7,48.2-38.6,77.2-53.4 c1.4-0.7,2.8-1.4,4.2-2.1c31.4-15.5,66.3-27.5,103.3-35.4c1.6-0.3,3.1-0.7,4.7-1c31.5-6.4,64.9-9.9,99.5-10.1 c0.8,0,1.6,0,2.4,0c0.8,0,1.6,0,2.4,0c38.7,0.2,76,4.6,110.8,12.5c1.6,0.4,3.1,0.7,4.7,1.1c32.8,7.8,63.9,18.9,92.1,32.8 c1.4,0.7,2.8,1.4,4.2,2.1c32.3,16.4,61.3,36.9,84.7,60.8c1,1,2.1,2.1,3.1,3.2c20.9,22,37.4,47.1,47.6,74.9 c0.2,0.7,0.5,1.3,0.7,2c0.2,0.7,0.5,1.3,0.7,2c5.9,17.2,9.1,34.5,9.6,51.7C1061.7,568.2,1060,580.4,1056.9,592.5z"/><g><path style="fill:#ecebcd" d="M842.1,272.6l-27.4,41.5c1.6,0.4,3.1,0.7,4.7,1.1l27.2-41.6l7.5-11.5l-4.4-0.9L842.1,272.6z"/><path style="fill:#ecebcd" d="M568.2,258.1l-4.4,0.9l6.7,11.6l24.4,42.1c1.6-0.3,3.1-0.7,4.7-1l-24.6-42L568.2,258.1z"/><path style="fill:#ecebcd" d="M704,301.6l-0.1-43.8l0-12.1h-4.5l0,12.1l-0.1,43.8c0.8,0,1.6,0,2.4,0 C702.4,301.6,703.2,301.6,704,301.6z"/><path style="fill:#ecebcd" d="M1051.9,490.9c0.2,0.7,0.5,1.3,0.7,2h106.3h31.6l-2-4H1157h-105.9 C1051.4,489.6,1051.6,490.2,1051.9,490.9z"/><path style="fill:#ecebcd" d="M286.5,764.9l-37.2,24.8l3.8,4.8l37.3-25l115.5-77.5c-1.4-1.4-2.7-2.7-4.1-4.1L286.5,764.9z"/><path style="fill:#ecebcd" d="M442.2,879.7l-25.3,38.5l7.2,3.3l25.2-38.6l75.8-116.3c-2.2-0.9-4.5-1.7-6.7-2.6L442.2,879.7z"/><path style="fill:#ecebcd" d="M705.5,798.2c-1.3,0-2.6,0-3.9,0s-2.6,0-3.9,0l-0.4,134.8l-0.1,45.7h9l-0.1-45.7L705.5,798.2z"/><path style="fill:#ecebcd" d="M1056.9,592.7c-0.4,1.5-0.8,3-1.2,4.5l122.9,36.1l38,11.2l0.6-4.9l-37.8-11.1L1056.9,592.7z"/><path style="fill:#ecebcd" d="M868.7,770.1c-2.3,0.8-4.6,1.6-6.9,2.4l69.4,119.6l23.1,39.8l7.5-3.1l-23.3-39.7L868.7,770.1z"/><path style="fill:#ecebcd" d="M1001.3,688c-1.3,1.4-2.7,2.7-4.1,4.1l115.5,77.5l37.3,25l3.8-4.8l-37.2-24.8L1001.3,688z"/><path style="fill:#ecebcd" d="M1085.4,392.6l23.5-6.1l-3.3-3l-23.4,6.1l-81.7,21.3c1,1,2.1,2.1,3.1,3.2L1085.4,392.6z"/><path style="fill:#ecebcd" d="M964.3,312.9L911.5,348c1.4,0.7,2.8,1.4,4.2,2.1l52.7-35.3l14.8-9.9l-4.1-1.9L964.3,312.9z"/><path style="fill:#ecebcd" d="M343.9,582l-121.7,31.7l-37.4,9.7l0.3,4.8l37.5-9.8l122.2-32 C344.5,584.9,344.2,583.5,343.9,582z"/><path style="fill:#ecebcd" d="M308.9,373.8l-3.4,2.9l22.6,6.6l79,23.2c1.1-1,2.1-2.1,3.2-3.1l-78.8-23.1L308.9,373.8z"/><path style="fill:#ecebcd" d="M350.6,492.9c0.2-0.7,0.5-1.3,0.7-2c0.2-0.7,0.5-1.3,0.7-2H246.2h-31.5l-2,4h31.6H350.6z"/><path style="fill:#ecebcd" d="M487.5,350.1c1.4-0.7,2.8-1.4,4.2-2.1l-52.7-35.2l-14.8-9.9l-4.1,1.9l14.8,9.9L487.5,350.1z"/><path style="fill:#fefbe3" d="M868.7,770.1l69.9,119.1c73.6-29.4,132.6-71.1,174.2-119.6l-115.5-77.5 C964.7,724.2,921.1,751.2,868.7,770.1z"/><path style="fill:#fefbe3" d="M814.8,314.1l27.4-41.5c-43.6-9.4-90.1-14.6-138.2-14.7l0.1,43.8 C742.7,301.8,780,306.2,814.8,314.1z"/><path style="fill:#fefbe3" d="M911.5,348l52.7-35.2c-36.5-16.8-76.2-30.1-117.7-39.3l-27.2,41.6 C852.2,323,883.3,334.1,911.5,348z"/><path style="fill:#fefbe3" d="M699.2,301.6l0.1-43.8c-43.1,0.1-84.8,4.3-124.3,11.9l24.6,42 C631.1,305.3,664.6,301.7,699.2,301.6z"/><path style="fill:#fefbe3" d="M705.5,798.2l0.4,134.8c81.7-0.5,158.2-15.2,225.3-41l-69.4-119.6 C814.6,788.7,761.7,797.8,705.5,798.2z"/><path style="fill:#fefbe3" d="M1052.6,492.9c11.4,33.2,12.7,67,4.4,99.8l122.5,35.8c6.4-45.4-0.5-91.4-20.5-135.6H1052.6z"/><path style="fill:#fefbe3" d="M1051.1,488.9H1157c-17.1-36.2-41.9-68.4-71.6-96.3l-81.9,21.4 C1024.4,436.1,1040.9,461.2,1051.1,488.9z"/><path style="fill:#fefbe3" d="M1001.3,688l115.4,77c33.8-40.9,54.6-85.7,62-131.6l-122.9-36.1 C1046.6,629.4,1028.2,660.3,1001.3,688z"/><path style="fill:#fefbe3" d="M1000.4,410.9l81.7-21.3c-32.6-29.8-71.4-54.9-113.8-74.8l-52.7,35.3 C948,366.5,977,387,1000.4,410.9z"/><path style="fill:#fefbe3" d="M344.8,586.4l-122.2,32c5,51,26.4,101.1,63.9,146.5l115.4-77 C372,657.2,352.6,622.5,344.8,586.4z"/><path style="fill:#fefbe3" d="M487.5,350.1l-52.7-35.3c-38,17.9-73.1,39.9-103.3,65.6l78.8,23.1 C432.3,382.8,458.5,364.8,487.5,350.1z"/><path style="fill:#fefbe3" d="M525.1,766.6l-75.8,116.3c72.2,31.4,156.7,49.7,248,50.2l0.4-134.8 C634.9,797.8,576.2,786.4,525.1,766.6z"/><path style="fill:#fefbe3" d="M594.9,312.7l-24.4-42.1c-46.5,9.3-91,23.6-131.6,42.3l52.7,35.2 C523,332.5,558,320.5,594.9,312.7z"/><path style="fill:#fefbe3" d="M407.1,406.5l-79-23.2c-34.4,29.9-62.9,65.3-81.9,105.6H352C363.4,458,382.6,430.3,407.1,406.5 z"/><path style="fill:#fefbe3" d="M405.9,692.1l-115.5,77.5c37.2,43.5,88.5,81.5,151.8,110.1L518.4,764 C473.1,745.5,435.1,720.8,405.9,692.1z"/><path style="fill:#fefbe3" d="M350.6,492.9H244.3c-17.9,39.4-25.2,80.2-22.1,120.8L343.9,582 C338.3,552.6,340.5,522.5,350.6,492.9z"/></g><rect style="fill:#066b9d" width="15" height="40.7" x="696.4" y="369.7"/><polygon style="fill:#066b9d" points="494.1 457.9 479.1 466.6 460.9 436.5 475.9 427.8"/><polygon style="fill:#066b9d" points="908.2 457.9 923.2 466.6 941.4 436.5 926.4 427.8"/></g><rect style="fill:#d1cfa3" width="124.2" height="125.7" x="647.8" y="1032.3"/><rect style="fill:#d1cfa3" width="124.2" height="125.7" x="647.8" y="1030.2"/><rect style="fill:#006f90" width="56.4" height="73.5" x="682.1" y="1090.1"/><rect style="fill:#505259" width="56.4" height="51.4" x="682.1" y="1112.3"/></g><path style="fill:#fefbe3" d="M706.7,723c4.8,0,8.7-3.9,8.7-8.7v-2.5c0-4.8-3.9-8.7-8.7-8.7h-7.5c-4.8,0-8.7,3.9-8.7,8.7v2.5 c0,4.7,3.7,8.5,8.3,8.7v94.9h-4.2c-1.1,0-2.1,0.9-2.1,2.1v0c0,1.1,0.9,2.1,2.1,2.1h4.2v132.3h5v-87h5.4c1.1,0,2.1-0.9,2.1-2.1 v-0.5c0-1.1-0.9-2.1-2.1-2.1h-5.4V822h9.2c1.1,0,2.1-0.9,2.1-2.1v0c0-1.1-0.9-2.1-2.1-2.1h-9.2v-38.3h7.5c1.1,0,2.1-0.9,2.1-2.1 v-1.3c0-1.1-0.9-2.1-2.1-2.1h-7.5V723H706.7z"/><g><path style="fill:#fefbe3" d="M237.3,307c3.9,0,7-3.1,7-7v-2c0-3.9-3.1-7-7-7h-6c-3.9,0-7,3.1-7,7v2c0,3.8,3,6.8,6.7,7v76h-3.4 c-0.9,0-1.6,0.7-1.6,1.6v0c0,0.9,0.7,1.6,1.6,1.6h3.4v106h4v-69.7h4.4c0.9,0,1.6-0.7,1.6-1.6v-0.4c0-0.9-0.7-1.6-1.6-1.6H235 v-32.7h7.4c0.9,0,1.6-0.7,1.6-1.6v0c0-0.9-0.7-1.6-1.6-1.6H235v-30.7h6c0.9,0,1.6-0.7,1.6-1.6v-1c0-0.9-0.7-1.6-1.6-1.6h-6v-41 H237.3z"/><path style="fill:#d1cfa3" d="M255.6,605.1c3.9,0,7-3.1,7-7v-2c0-3.9-3.1-7-7-7h-6c-3.9,0-7,3.1-7,7v2c0,3.8,3,6.8,6.7,7v76 h-3.4c-0.9,0-1.6,0.7-1.6,1.7v0c0,0.9,0.7,1.6,1.6,1.6h3.4v106h4v-69.7h4.4c0.9,0,1.6-0.7,1.6-1.6v-0.4c0-0.9-0.7-1.7-1.6-1.7 h-4.4v-32.7h7.4c0.9,0,1.6-0.7,1.6-1.6v0c0-0.9-0.7-1.7-1.6-1.7h-7.4v-30.7h6c0.9,0,1.6-0.7,1.6-1.6v-1c0-0.9-0.7-1.7-1.6-1.7 h-6v-41H255.6z"/><path style="fill:#fefbe3" d="M429,163.3c3,0,5.4-2.4,5.4-5.4v-1.5c0-3-2.4-5.4-5.4-5.4h-4.6c-3,0-5.4,2.4-5.4,5.4v1.5 c0,2.9,2.3,5.3,5.1,5.4V222h-2.6c-0.7,0-1.3,0.6-1.3,1.3v0c0,0.7,0.6,1.3,1.3,1.3h2.6v81.8h3.1v-53.7h3.4c0.7,0,1.3-0.6,1.3-1.3 V251c0-0.7-0.6-1.3-1.3-1.3h-3.4v-25.2h5.7c0.7,0,1.3-0.6,1.3-1.3v0c0-0.7-0.6-1.3-1.3-1.3h-5.7v-23.7h4.6 c0.7,0,1.3-0.6,1.3-1.3v-0.8c0-0.7-0.6-1.3-1.3-1.3h-4.6v-31.6H429z"/></g><g><path style="fill:#fefbe3" d="M1168.4,307c-3.9,0-7-3.1-7-7v-2c0-3.9,3.1-7,7-7h6c3.9,0,7,3.1,7,7v2c0,3.8-3,6.8-6.7,7v76h3.4 c0.9,0,1.6,0.7,1.6,1.6v0c0,0.9-0.7,1.6-1.6,1.6h-3.4v106h-4v-69.7h-4.3c-0.9,0-1.7-0.7-1.7-1.6v-0.4c0-0.9,0.7-1.6,1.7-1.6h4.3 v-32.7h-7.3c-0.9,0-1.7-0.7-1.7-1.6v0c0-0.9,0.7-1.6,1.7-1.6h7.3v-30.7h-6c-0.9,0-1.6-0.7-1.6-1.6v-1c0-0.9,0.7-1.6,1.6-1.6h6 v-41H1168.4z"/><path style="fill:#d1cfa3" d="M1150.1,605.1c-3.9,0-7-3.1-7-7v-2c0-3.9,3.1-7,7-7h6c3.9,0,7,3.1,7,7v2c0,3.8-3,6.8-6.7,7v76 h3.3c0.9,0,1.7,0.7,1.7,1.7v0c0,0.9-0.7,1.6-1.7,1.6h-3.3v106h-4v-69.7h-4.3c-0.9,0-1.7-0.7-1.7-1.6v-0.4c0-0.9,0.7-1.7,1.7-1.7 h4.3v-32.7h-7.3c-0.9,0-1.7-0.7-1.7-1.6v0c0-0.9,0.7-1.7,1.7-1.7h7.3v-30.7h-6c-0.9,0-1.7-0.7-1.7-1.6v-1c0-0.9,0.7-1.7,1.7-1.7 h6v-41H1150.1z"/><path style="fill:#fefbe3" d="M976.8,163.3c-3,0-5.4-2.4-5.4-5.4v-1.5c0-3,2.4-5.4,5.4-5.4h4.6c3,0,5.4,2.4,5.4,5.4v1.5 c0,2.9-2.3,5.3-5.1,5.4V222h2.6c0.7,0,1.3,0.6,1.3,1.3v0c0,0.7-0.6,1.3-1.3,1.3h-2.6v81.8h-3.1v-53.7h-3.4 c-0.7,0-1.3-0.6-1.3-1.3V251c0-0.7,0.6-1.3,1.3-1.3h3.4v-25.2h-5.7c-0.7,0-1.3-0.6-1.3-1.3v0c0-0.7,0.6-1.3,1.3-1.3h5.7v-23.7 h-4.6c-0.7,0-1.3-0.6-1.3-1.3v-0.8c0-0.7,0.6-1.3,1.3-1.3h4.6v-31.6H976.8z"/></g><path style="fill:#fefbe3" d="M704.4,137.2c2.5,0,4.5-2,4.5-4.5v-1.3c0-2.5-2-4.5-4.5-4.5h-3.8c-2.5,0-4.5,2-4.5,4.5v1.3 c0,2.4,1.9,4.4,4.3,4.5v48.7h-2.1c-0.6,0-1.1,0.5-1.1,1.1v0c0,0.6,0.5,1.1,1.1,1.1h2.1V256h2.6v-44.6h2.8c0.6,0,1.1-0.5,1.1-1.1 v-0.2c0-0.6-0.5-1.1-1.1-1.1h-2.8v-20.9h4.7c0.6,0,1.1-0.5,1.1-1.1v0c0-0.6-0.5-1.1-1.1-1.1h-4.7v-19.7h3.9 c0.6,0,1.1-0.5,1.1-1.1v-0.7c0-0.6-0.5-1.1-1.1-1.1h-3.9v-26.3H704.4z"/></g></g></g></svg>